<svg class="u-svg-content" viewBox="0 0 510 510" id="svg-529f" style="
    width: 40px;
    height: 40px;
"><g><path d="m393.159 121.41 69.152-86.44c-16.753-2.022-149.599-37.363-282.234-8.913v-26.057h-30v361.898c-25.85 6.678-45 30.195-45 58.102v1.509c-34.191 6.969-60 37.272-60 73.491v15h240v-15c0-36.22-25.809-66.522-60-73.491v-1.509c0-27.906-19.15-51.424-45-58.102v-124.733c153.335-30.989 264.132 7.082 284.847 9.834zm-140.653 358.59h-174.859c6.19-17.461 22.873-30 42.43-30h90c19.556 0 36.238 12.539 42.429 30zm-57.429-60h-60c0-16.542 13.458-30 30-30s30 13.458 30 30zm-15-213.427v-149.802c66.329-15.269 141.099-15.756 227.537-1.455l-50.619 63.274 48.8 85.4c-75.047-12.702-150.759-11.841-225.718 2.583z"></path>
</g></svg>